<svg id="Layer_1" data-name="Layer 1" xmlns="http://www.w3.org/2000/svg" viewBox="0 0 1017 972"><defs><style>.cls-1{fill:#fdfae2;}</style></defs><title>dog-height</title><path class="cls-1" d="M461.68,657.91l-34.81,33.78L373.7,749l-.14.16-28.45,34.56a2.42,2.42,0,0,0-.27.36s-21.58,33.84-24.1,38.39a46.81,46.81,0,0,0-3.88,10.91l-13,42.09c-.1.32-1.77,9.62-1.77,10l-1.19,14.07a28.75,28.75,0,0,1-1.87,5.88l-4.39,7.75c-.25.36-6,6.82-6.37,7.06L268.74,934c-.39.26-8.63,3.55-9.1,3.64l-13.76,4.21c-.21,0-19.35,2.84-19.57,2.84L201.06,944c-.25,0-11.13-1.09-11.38-1.14l-11.29-1.42-9.21-2.22-17.58-4c-.2,0-18.16-5.31-18.34-5.38L117.9,925c-.11,0-9.8-3.71-9.9-3.75l-6.31-3.33c-3.1-1.38-3.33,3.94-1.65,6.88l4,7.17c.14.25,12.88,15.72,13.08,15.93l19.68,15.79a3.52,3.52,0,0,0,.78.6l18.32,10.47c.19.11,16.94,7.69,17.15,7.76l15.29,4.39c.36.13,17.58,2.51,18,2.51l32.88-.8c.34,0,8.88-1.72,9.21-1.82,0,0,18.47-5.25,23.32-8.08s26-16.26,26-16.26a68.79,68.79,0,0,0,5.2-5l5-7.82a3.52,3.52,0,0,1,5.53-.74l3.65,3.66a4.51,4.51,0,0,0,.59.47l12.4,8a3.5,3.5,0,0,1,1.61,2.95l-.77,9.31a18.1,18.1,0,0,0,2.55,10.84l2.43,4H555l-3.48-7.7a59.65,59.65,0,0,0-20.86-24.78l-2.75-1.87a20.55,20.55,0,0,0-11.56-3.55l-37.63,0-33-.53a4.09,4.09,0,0,1-.7,0h0a3.51,3.51,0,0,1-1.57-6.43L482.1,912l31.58-31.4,39.2-14.46.15,0A76.27,76.27,0,0,0,564.38,862l35.37-15.66a1.59,1.59,0,0,0,.29-.15l40.75-22.85a4,4,0,0,0,.54-.37l43-36a3.5,3.5,0,0,1,5.59,1.63l18.8,58.92,39.51,124.44a2.36,2.36,0,0,1,.1.38l2.49,12.62a3.5,3.5,0,0,0,3.43,2.83l61.18.16a3.52,3.52,0,0,0,3.52-3.51V963a3.51,3.51,0,0,0-2.09-3.21l-31.57-13.95a3.5,3.5,0,0,1-2.07-2.88L776,865.75l-7.15-71.5c0-.11,0-.23,0-.35V758.41c0-.11,0-.22,0-.34l4-41.33a3.25,3.25,0,0,1,.22-.92L785.27,684a100.45,100.45,0,0,0,4.89-19.83,2.7,2.7,0,0,0,0-.28l4.12-48.81a32.47,32.47,0,0,0-.07-8.24l-4.24-40a140.4,140.4,0,0,0-7.18-31.87l-14-39.64a2.76,2.76,0,0,1-.08-.27l-14.64-55.66-9.84-44.26a3.13,3.13,0,0,0-.16-.52c-1.18-3-11.89-33.15,22.11-57.44,14.37-10.26,23.1-16.45,28.32-20.13a45.18,45.18,0,0,0,12.23-12.87l3.72-5.9a39.35,39.35,0,0,0,5.67-15.34c2.14-14.69,4.64-43.27-7.45-47.8-16.38-6.14-45,16.38-45,16.38s-28.66,21.5-55.28,1c-22.23-17.1-77.26,24.31-94.85,38.46a22.24,22.24,0,0,0-7.4,11.13l-4.69,16.16-6.69,21a36.13,36.13,0,0,1-5,10c-6.45,9.12-20.39,29.09-21.67,33.33-1.82,6,2.66,11.68,4.34,13.54a27.85,27.85,0,0,0,3.4,3.13l6,2.39c.23.09,5,1,5.29,1l4.52-.25c1.69.25,5,1.1,5,2.81l.86,12.79c0,.1.34,8.61.34,8.71l-1.06,48.65a4.45,4.45,0,0,1-.12.73l-5.14,37.64c.49-.93-5.55,14.9-6.31,16.38-2,4-24.48,33.26-33.73,44.48C537.7,591.33,507.75,616,507.75,616Z" transform="translate(-27 -36)"/><rect class="cls-1" y="945" width="1017" height="27" rx="10.01"/><rect class="cls-1" x="909" y="810" width="108" height="27" rx="10.01"/><rect class="cls-1" x="909" y="891" width="72" height="27" rx="10.01"/><rect class="cls-1" x="909" y="648" width="108" height="27" rx="10.01"/><rect class="cls-1" x="909" y="729" width="72" height="27" rx="10.01"/><rect class="cls-1" x="909" y="486" width="108" height="27" rx="10.01"/><rect class="cls-1" x="909" y="567" width="72" height="27" rx="10.01"/><rect class="cls-1" x="909" y="324" width="108" height="27" rx="10.01"/><rect class="cls-1" x="909" y="405" width="72" height="27" rx="10.01"/><rect class="cls-1" x="909" y="162" width="108" height="27" rx="10.01"/><rect class="cls-1" x="909" y="243" width="72" height="27" rx="10.01"/><rect class="cls-1" x="909" y="81" width="72" height="27" rx="10.01"/><rect class="cls-1" x="409.5" y="499.5" width="954" height="27" rx="10" transform="translate(346.5 1363.5) rotate(-90)"/></svg>