<svg id="Layer_1" data-name="Layer 1" xmlns="http://www.w3.org/2000/svg" viewBox="0 0 512 512"><defs><style>.cls-1{fill:#fdfae2;}</style></defs><title>dogPaw</title><path class="cls-1" d="M338.56,298.66c-21.59-43.17-38.66-86.34-86.34-86.34s-64.76,43.17-86.34,86.34C122.71,341.83,79.54,337.31,79.54,385a86.34,86.34,0,0,0,86.34,86.33H338.56A86.34,86.34,0,0,0,424.9,385C424.9,337.31,381.73,341.83,338.56,298.66Z"/><ellipse class="cls-1" cx="90.33" cy="223.11" rx="53.96" ry="75.55" transform="matrix(0.98, -0.17, 0.17, 0.98, -37.37, 19.08)"/><ellipse class="cls-1" cx="414.1" cy="223.11" rx="75.55" ry="53.96" transform="translate(122.48 592.18) rotate(-80)"/><ellipse class="cls-1" cx="306.18" cy="115.19" rx="75.55" ry="53.96" transform="translate(139.58 396.71) rotate(-80)"/><ellipse class="cls-1" cx="176.67" cy="115.19" rx="53.96" ry="75.55" transform="translate(-17.32 32.43) rotate(-10)"/></svg>